<svg xmlns="http://www.w3.org/2000/svg" width="72" height="72" viewBox="0 0 72 72">
    <defs>
        <clipPath id="clip-path">
            <path id="Rectangle_100" d="M0 0H72V72H0z" class="cls-1" transform="translate(240 2559)"/>
        </clipPath>
        <style>
            .cls-1{fill:#d02029}
        </style>
    </defs>
    <g id="Mask_Group_37" clip-path="url(#clip-path)" transform="translate(-240 -2559)">
        <path id="icons8-pass_fail" d="M42.985 4.3a6.38 6.38 0 0 0-6.229 5.373H19.343a3.24 3.24 0 0 0-3.224 3.227v60.175a3.24 3.24 0 0 0 3.224 3.225h47.284a3.24 3.24 0 0 0 3.224-3.224V12.9a3.24 3.24 0 0 0-3.224-3.224H49.215a6.38 6.38 0 0 0-6.23-5.376zm0 2.149a4.283 4.283 0 0 1 4.3 4.3v1.075h6.448v3.224a1.058 1.058 0 0 1-1.075 1.075H33.313a1.058 1.058 0 0 1-1.075-1.075v-3.227h6.448v-1.075a4.283 4.283 0 0 1 4.299-4.298zm0 3.224a1.075 1.075 0 1 0 1.075 1.075 1.075 1.075 0 0 0-1.075-1.076zm-23.642 2.148H30.09v3.224a3.24 3.24 0 0 0 3.224 3.224h19.343a3.24 3.24 0 0 0 3.224-3.224v-3.224h10.746A1.058 1.058 0 0 1 67.7 12.9v60.175a1.058 1.058 0 0 1-1.075 1.075H19.343a1.058 1.058 0 0 1-1.075-1.075V12.9a1.058 1.058 0 0 1 1.075-1.079zm4.3 2.149a1.075 1.075 0 1 0 1.075 1.075 1.075 1.075 0 0 0-1.076-1.075zm0 4.3a1.075 1.075 0 1 0 1.075 1.075 1.075 1.075 0 0 0-1.076-1.076zm0 4.3a1.075 1.075 0 1 0 1.075 1.075 1.075 1.075 0 0 0-1.076-1.078zm0 4.3a1.075 1.075 0 1 0 1.075 1.075 1.075 1.075 0 0 0-1.076-1.079zm36.306 3.463l-5.9 5.692L51.2 33.1l-1.538 1.5L54 39.052l7.443-7.176zm-36.306.835a1.075 1.075 0 1 0 1.075 1.075 1.075 1.075 0 0 0-1.076-1.079zm6.447 3.222v2.149h15.044V34.39zm-6.448 1.073a1.075 1.075 0 1 0 1.075 1.075 1.075 1.075 0 0 0-1.075-1.075zm0 4.3a1.075 1.075 0 1 0 1.075 1.075 1.075 1.075 0 0 0-1.075-1.077zm0 4.3a1.075 1.075 0 1 0 1.075 1.075 1.075 1.075 0 0 0-1.075-1.078zm28.8 3.528l-1.5 1.541 3.711 3.612-3.713 3.611 1.5 1.541 3.753-3.654 3.751 3.658 1.5-1.541-3.711-3.614 3.711-3.612-1.5-1.541-3.753 3.654zm-28.8.77a1.075 1.075 0 1 0 1.075 1.075 1.075 1.075 0 0 0-1.075-1.078zm6.448 3.226v2.149h15.044v-2.152zm-6.448 1.073a1.075 1.075 0 1 0 1.075 1.075 1.075 1.075 0 0 0-1.075-1.078zm0 4.3a1.075 1.075 0 1 0 1.075 1.075 1.075 1.075 0 0 0-1.075-1.08zm0 4.3a1.075 1.075 0 1 0 1.075 1.075 1.075 1.075 0 0 0-1.075-1.081zm0 4.3a1.075 1.075 0 1 0 1.075 1.075 1.075 1.075 0 0 0-1.075-1.083zm0 4.3a1.075 1.075 0 1 0 1.075 1.075 1.075 1.075 0 0 0-1.075-1.084z" class="cls-1" transform="translate(233.015 2554.701)"/>
    </g>
</svg>
