<svg xmlns="http://www.w3.org/2000/svg" width="72" height="72" viewBox="0 0 72 72">
    <defs>
        <clipPath id="clip-path">
            <path id="Rectangle_100" d="M0 0H72V72H0z" class="cls-1" transform="translate(240 2559)"/>
        </clipPath>
        <style>
            .cls-1{fill:#d02029}
        </style>
    </defs>
    <g id="Mask_Group_39" clip-path="url(#clip-path)" transform="translate(-240 -2559)">
        <path id="icons8-butterfly" d="M15.754 13.5a6.989 6.989 0 0 0-4.8 1.536 6.762 6.762 0 0 0-1.932 5.231c0 12.858.833 20.652 4.416 25.46a13.438 13.438 0 0 0 7.444 4.846 28.449 28.449 0 0 0 2.976.523c-6.811 2.872-8.519 8.951-7.075 12.29a26.938 26.938 0 0 0 6 9.031c2.475 2.418 5.262 4.1 8.057 4.1a4.194 4.194 0 0 0 2.626-1.2 18.119 18.119 0 0 0 3.013-3.136 36.8 36.8 0 0 0 4.821-8.594l1.325 9.721a2.413 2.413 0 0 0 4.783 0l1.325-9.719a36.8 36.8 0 0 0 4.822 8.594 18.119 18.119 0 0 0 3.013 3.136 4.194 4.194 0 0 0 2.626 1.2c2.8 0 5.582-1.681 8.057-4.1a26.939 26.939 0 0 0 6.009-9.051v-.007c.867-2.214.408-5.576-2-8.528a13.18 13.18 0 0 0-5.132-3.73 28.436 28.436 0 0 0 3.018-.532 13.458 13.458 0 0 0 7.454-4.849c3.585-4.812 4.42-12.608 4.42-25.467 0-2.368-.666-4.168-1.95-5.288a7.072 7.072 0 0 0-4.8-1.464c-3.992 0-9.007 2.871-13.853 7.42a47.42 47.42 0 0 0-10.829 15.223 5.7 5.7 0 0 0-2.312-1.9 4.455 4.455 0 0 0-.156-7.813L52.749 16.3a1.127 1.127 0 1 0-1.969-1.095l-5.627 10.13a1.126 1.126 0 0 0-.143.523 1.126 1.126 0 0 0-.138-.523l-5.627-10.128a1.127 1.127 0 1 0-1.969 1.093L42.9 26.429a4.455 4.455 0 0 0-.156 7.813 5.7 5.7 0 0 0-2.312 1.9 47.42 47.42 0 0 0-10.825-15.218c-4.845-4.549-9.861-7.424-13.853-7.424zm0 2.251c2.809 0 7.712 2.49 12.315 6.811a44.587 44.587 0 0 1 11.337 17.081 5.628 5.628 0 0 0 3.2 4.807 5.63 5.63 0 0 0-3.224 5.064v.077l1.259 9.209a1.125 1.125 0 0 0-.077.2A38.062 38.062 0 0 1 34.7 70.8a16.11 16.11 0 0 1-2.624 2.747 7.087 7.087 0 0 1-1.237.723c-1.834 0-4.257-1.284-6.484-3.459a24.9 24.9 0 0 1-5.492-8.275l-.013-.031c-.95-2.184.685-10.741 13.789-10.741a1.125 1.125 0 1 0 0-2.251 42.484 42.484 0 0 1-11.143-1.1 10.992 10.992 0 0 1-6.253-4.026c-2.961-3.974-3.969-11.365-3.969-24.115 0-1.893.479-2.922 1.185-3.556a4.827 4.827 0 0 1 3.295-.962zm58.516 0a4.975 4.975 0 0 1 3.319.908c.7.608 1.178 1.622 1.178 3.594 0 12.75-1.012 20.144-3.976 24.122a11.01 11.01 0 0 1-6.257 4.033 42.421 42.421 0 0 1-11.143 1.1 1.125 1.125 0 1 0 0 2.251c6.552 0 10.2 2.121 12.128 4.495s2.082 5.167 1.646 6.282a24.9 24.9 0 0 1-5.49 8.268c-2.227 2.176-4.65 3.459-6.484 3.459a7.087 7.087 0 0 1-1.237-.723 16.111 16.111 0 0 1-2.625-2.74A38.062 38.062 0 0 1 49.461 59a1.126 1.126 0 0 0-.077-.2l1.255-9.2v-.077a5.63 5.63 0 0 0-3.224-5.064 5.628 5.628 0 0 0 3.2-4.807 44.587 44.587 0 0 1 11.341-17.086c4.603-4.321 9.506-6.812 12.314-6.812zm-.176 5.275l-.9.453-.178.991.688.738.391.068.9-.451.178-.993-.688-.736zm-57.239.633l-.9.453-.178.991.69.736.389.07.9-.453.178-.991-.688-.736zm57.156 3.871l-.9.451-.178.993.69.736.389.07.9-.453.178-.991-.69-.736zm-57.311.622l-.9.451-.178.993.69.736.389.07.9-.453.176-.991-.688-.738zm28.317 1.98a2.251 2.251 0 1 1-2.251 2.251 2.234 2.234 0 0 1 2.246-2.25zM73.8 30.025l-.9.453-.176.991.688.736.391.07.9-.451.178-.993-.69-.736zm-57 .626l-.9.453-.178.991.688.736.391.07.9-.451.178-.993-.688-.736zM73.33 34.5l-.9.451-.178.993.69.736.389.07.9-.453.176-.993-.688-.736zm-56.3.644l-.9.453-.178.991.69.736.389.07.9-.451.176-.993-.688-.736zm27.985.864a3.355 3.355 0 0 1 3.369 3.3 1.126 1.126 0 0 0 0 .178 3.366 3.366 0 0 1-6.73.007 1.126 1.126 0 0 0 0-.178 3.355 3.355 0 0 1 3.358-3.305zm27.423 2.9l-.9.451-.178.993.69.736.389.07.9-.453.178-.991-.688-.736zm-54.881.706l-.9.453-.178.991.688.736.391.07.9-.451.178-.993-.688-.736zm53.133 3.429l-.9.453-.178.991.69.736.389.07.9-.453.178-.991-.688-.736zM18.53 44l-.9.451-.178.993.69.736.389.07.9-.453.176-.991-.688-.736zm26.482 2.134a3.356 3.356 0 0 1 3.37 3.366L45.175 73a.164.164 0 0 1-.325 0l-3.207-23.5a3.356 3.356 0 0 1 3.369-3.362zM29.258 65.268a2.251 2.251 0 1 0 2.251 2.251 2.251 2.251 0 0 0-2.251-2.251zm31.509 0a2.251 2.251 0 1 0 2.251 2.251 2.251 2.251 0 0 0-2.251-2.251z" class="cls-1" transform="translate(230.982 2549.988)"/>
    </g>
</svg>
