<svg xmlns="http://www.w3.org/2000/svg" width="72" height="72" viewBox="0 0 72 72">
    <defs>
        <clipPath id="clip-path">
            <path id="Rectangle_100" d="M0 0H72V72H0z" class="cls-1" transform="translate(240 2559)"/>
        </clipPath>
        <style>
            .cls-1{fill:#d02029}
        </style>
    </defs>
    <g id="Mask_Group_38" clip-path="url(#clip-path)" transform="translate(-240 -2559)">
        <path id="icons8-student_male" d="M44.792 7.506L12.48 27.982l3.2 2.073v19.426a3.371 3.371 0 0 0-2.24 3.149 4.938 4.938 0 0 0 .416 1.776c.227.626.516 1.308.8 1.947.573 1.277 1.142 2.388 1.142 2.388l1 1.938 1-1.938s.569-1.111 1.142-2.388c.289-.639.577-1.321.8-1.947a4.938 4.938 0 0 0 .416-1.776 3.371 3.371 0 0 0-2.24-3.149V31.5l9.011 5.835a3.272 3.272 0 0 0-.052.512 6.691 6.691 0 0 0 .4 1.955c.087.306.175.591.232.8s.07.424.07.262a2.832 2.832 0 0 0 2.782 2.765 14.5 14.5 0 0 0 5.477 10.7v4.181a72.52 72.52 0 0 0-9.435 3.6 32.3 32.3 0 0 0-7.183 4.418c-2.017 1.737-3.539 3.814-3.539 6.255v6.719h58.23v-6.715c0-2.441-1.522-4.519-3.539-6.255a32.3 32.3 0 0 0-7.183-4.418 72.52 72.52 0 0 0-9.435-3.6v-4.177a14.5 14.5 0 0 0 5.477-10.7 2.832 2.832 0 0 0 2.782-2.765c0 .162.013-.048.07-.262s.144-.5.232-.8a6.691 6.691 0 0 0 .4-1.955 3.2 3.2 0 0 0-.07-.652L77.113 28zm0 2.651L72.94 28l-11.548 7.339a3.26 3.26 0 0 0-1.9-.626c-.1 0-.079.022-.14.031v-1l1.212-7.336L60.05 26a26.148 26.148 0 0 0-15.257-4.724A26.148 26.148 0 0 0 29.535 26l-.512.411 1.212 7.34v.993c-.061-.009-.044-.031-.14-.031a3.238 3.238 0 0 0-2 .709L16.635 28zm0 13.359c7.974 0 12.637 3.412 13.328 3.932l-.774 4.694h-.236v.022a40.357 40.357 0 0 0-24.859.066l-.787-4.781c.691-.521 5.354-3.933 13.328-3.933zm0 8.958A40.907 40.907 0 0 1 57.11 34.46v3.954l1.684-.989c.289-.166.556-.315.744-.411.022-.013.031-.013.052-.026a.905.905 0 0 1 .879.862 10.326 10.326 0 0 1-.3 1.325c-.087.289-.175.582-.249.849a2.594 2.594 0 0 0-.149.849.583.583 0 0 1-.63.56H57.11v1.531A12.3 12.3 0 0 1 46.966 55.08l-.319.052-.241.223a2.371 2.371 0 0 1-3.228 0l-.241-.223-.319-.052a12.3 12.3 0 0 1-10.144-12.116v-1.531h-2.03a.583.583 0 0 1-.63-.56 2.594 2.594 0 0 0-.149-.849c-.074-.267-.162-.56-.249-.849a10.326 10.326 0 0 1-.3-1.325.905.905 0 0 1 .879-.862c.022.013.031.013.052.026.188.1.455.245.744.411l1.684.989V34.46a40.907 40.907 0 0 1 12.317-1.986zm-6.159 4.479a1.68 1.68 0 1 0 1.68 1.68 1.68 1.68 0 0 0-1.68-1.679zm12.318 0a1.68 1.68 0 1 0 1.68 1.68 1.68 1.68 0 0 0-1.68-1.679zM16.8 51.511a1.1 1.1 0 0 1 1.12 1.12 9.5 9.5 0 0 1-.284 1.015c-.192.542-.464 1.181-.735 1.789-.052.109-.052.1-.1.206l-.1-.206c-.271-.608-.542-1.247-.735-1.789a9.5 9.5 0 0 1-.284-1.015 1.1 1.1 0 0 1 1.118-1.12zm21.276 4.282a14.455 14.455 0 0 0 3.854 1.382 4.41 4.41 0 0 0 5.717 0 14.245 14.245 0 0 0 3.864-1.375v6.561a7.3 7.3 0 0 1-6.719 3.709 7.3 7.3 0 0 1-6.719-3.709zm-2.24 5.074v2.1l.118.241a10.216 10.216 0 0 0 17.681 0l.118-.241v-2.1a68.494 68.494 0 0 1 8.482 3.276 30.661 30.661 0 0 1 6.675 4.086c1.763 1.518 2.76 3.079 2.76 4.558v4.479H17.917v-4.479c0-1.478 1-3.04 2.76-4.558a30.661 30.661 0 0 1 6.675-4.086 68.494 68.494 0 0 1 8.482-3.275zM22.4 72.787a1.12 1.12 0 1 0 1.12 1.12 1.122 1.122 0 0 0-1.12-1.12zm4.479 0A1.12 1.12 0 1 0 28 73.907a1.122 1.122 0 0 0-1.125-1.12zm4.479 0a1.12 1.12 0 1 0 1.12 1.12 1.122 1.122 0 0 0-1.123-1.12zm4.479 0a1.12 1.12 0 1 0 1.12 1.12 1.122 1.122 0 0 0-1.123-1.12zm4.479 0a1.12 1.12 0 1 0 1.12 1.12 1.122 1.122 0 0 0-1.123-1.12zm4.479 0a1.12 1.12 0 1 0 1.12 1.12 1.122 1.122 0 0 0-1.123-1.12zm4.479 0a1.12 1.12 0 1 0 1.12 1.12 1.122 1.122 0 0 0-1.123-1.12zm4.479 0a1.12 1.12 0 1 0 1.12 1.12 1.122 1.122 0 0 0-1.122-1.12zm4.479 0a1.12 1.12 0 1 0 1.12 1.12 1.122 1.122 0 0 0-1.122-1.12zm4.479 0a1.12 1.12 0 1 0 1.12 1.12 1.122 1.122 0 0 0-1.122-1.12zm4.479 0a1.12 1.12 0 1 0 1.12 1.12 1.122 1.122 0 0 0-1.122-1.12z" class="cls-1" transform="translate(231.203 2551.494)"/>
    </g>
</svg>
