<svg xmlns="http://www.w3.org/2000/svg" viewBox="0 0 24 24">
  <defs>
    <style>
      .cls-1, .cls-3 {
        fill: #fff;
      }

      .cls-2 {
        clip-path: url(#clip-path);
      }

      .cls-3 {
        fill-rule: evenodd;
      }
    </style>
    <clipPath id="clip-path">
      <rect id="Rectangle_52" data-name="Rectangle 52" class="cls-1" width="24" height="24" transform="translate(796 39)"/>
    </clipPath>
  </defs>
  <g id="Mask_Group_20" data-name="Mask Group 20" class="cls-2" transform="translate(-796 -39)">
    <path id="ic24-globe" class="cls-3" d="M14.4,2.4a12,12,0,1,1-12,12A12,12,0,0,1,14.4,2.4Zm3.567,13.2H10.833A16.265,16.265,0,0,0,12.3,21.812C13.057,23.319,13.863,24,14.4,24s1.343-.681,2.1-2.188A16.265,16.265,0,0,0,17.967,15.6Zm5.959,0H20.37a18.476,18.476,0,0,1-1.816,7.457A9.612,9.612,0,0,0,23.926,15.6Zm-15.5,0H4.874a9.608,9.608,0,0,0,5.372,7.456,18.079,18.079,0,0,1-1.783-6.912L8.43,15.6Zm1.816-9.86-.031.016A9.608,9.608,0,0,0,4.874,13.2H8.43A18.477,18.477,0,0,1,10.246,5.742ZM14.4,4.8l-.1.007c-.534.076-1.289.763-2,2.181A16.266,16.266,0,0,0,10.833,13.2h7.134A16.266,16.266,0,0,0,16.5,6.988C15.743,5.481,14.937,4.8,14.4,4.8Zm4.154.943.027.05A18.542,18.542,0,0,1,20.37,13.2h3.555A9.608,9.608,0,0,0,18.554,5.743Z" transform="translate(793.6 36.6)"/>
  </g>
</svg>
