<svg xmlns="http://www.w3.org/2000/svg" width="36" height="36" viewBox="0 0 36 36">
    <defs>
        <radialGradient id="radial-gradient" cx=".157" cy=".885" r="1.036" gradientTransform="translate(-0.55 0.33) rotate(-41.844)" gradientUnits="objectBoundingBox">
            <stop offset="0" stop-color="#ffb100"/>
            <stop offset=".69" stop-color="#d60f91"/>
            <stop offset="1" stop-color="#52159a"/>
        </radialGradient>
        <clipPath id="clip-path">
            <path id="Rectangle_26" d="M0 0H36V36H0z" class="cls-1" transform="translate(551 5410)"/>
        </clipPath>
        <style>
            .cls-1{fill:url(#radial-gradient)}
        </style>
    </defs>
    <g id="Mask_Group_4" clip-path="url(#clip-path)" transform="translate(-551 -5410)">
        <path id="instagram" d="M17.994 13.028a9.228 9.228 0 1 0 9.228 9.228 9.213 9.213 0 0 0-9.228-9.228zm0 15.227a6 6 0 1 1 6-6 6.01 6.01 0 0 1-6 6zm11.758-15.6A2.152 2.152 0 1 1 27.6 10.5a2.147 2.147 0 0 1 2.152 2.151zm6.112 2.184c-.137-2.883-.8-5.437-2.907-7.541S28.3 4.531 25.415 4.386c-2.972-.169-11.878-.169-14.85 0-2.875.137-5.429.8-7.541 2.9S.261 11.944.116 14.827c-.169 2.972-.169 11.878 0 14.85.137 2.883.8 5.437 2.907 7.541s4.658 2.763 7.541 2.907c2.972.169 11.878.169 14.85 0 2.883-.137 5.437-.8 7.541-2.907s2.763-4.658 2.907-7.541c.169-2.972.169-11.87 0-14.842zm-3.839 18.03a6.074 6.074 0 0 1-3.425 3.417c-2.369.94-7.991.723-10.609.723s-8.248.209-10.609-.723a6.074 6.074 0 0 1-3.421-3.421c-.94-2.369-.723-7.991-.723-10.609s-.209-8.248.723-10.609a6.074 6.074 0 0 1 3.424-3.422c2.369-.94 7.991-.723 10.609-.723s8.248-.209 10.609.723a6.074 6.074 0 0 1 3.421 3.421c.94 2.369.723 7.991.723 10.609s.217 8.245-.722 10.61z" class="cls-1" transform="translate(551.01 5405.744)"/>
    </g>
</svg>
