<svg xmlns="http://www.w3.org/2000/svg" xmlns:xlink="http://www.w3.org/1999/xlink" width="18" height="18" viewBox="0 0 18 18">
  <defs>
    <style>
      .cls-1 {
        fill: #7d8d8d;
      }

      .cls-2 {
        clip-path: url(#clip-path);
      }
    </style>
    <clipPath id="clip-path">
      <rect id="Rectangle_3" data-name="Rectangle 3" class="cls-1" width="18" height="18" transform="translate(1397 39)"/>
    </clipPath>
  </defs>
  <g id="Mask_Group_1" data-name="Mask Group 1" class="cls-2" transform="translate(-1397 -39)">
    <path id="telegram" class="cls-1" d="M9,.387a9,9,0,1,0,9,9A9,9,0,0,0,9,.387Zm4.42,6.166-1.477,6.96c-.109.494-.4.613-.813.381L8.88,12.236,7.8,13.281a.568.568,0,0,1-.454.221l.16-2.29,4.17-3.767c.181-.16-.04-.25-.279-.091L6.238,10.6,4.017,9.906c-.483-.152-.494-.483.1-.715L12.8,5.845C13.2,5.7,13.551,5.943,13.42,6.553Z" transform="translate(1397 38.613)"/>
  </g>
</svg>
