<svg xmlns="http://www.w3.org/2000/svg" width="24" height="24" viewBox="0 0 24 24">
    <defs>
        <clipPath id="clip-path">
            <path id="Rectangle_203" d="M0 0H24V24H0z" class="cls-1" transform="translate(433 606)"/>
        </clipPath>
        <style>
            .cls-1{fill:#d02029}
        </style>
    </defs>
    <g id="Mask_Group_52" clip-path="url(#clip-path)" transform="translate(-433 -606)">
        <path id="_013-news" d="M18.375 24H5.625A5.631 5.631 0 0 1 0 18.375V12.75a4.679 4.679 0 0 1 3.7-4.594V5.625A5.631 5.631 0 0 1 9.328 0h9.047A5.631 5.631 0 0 1 24 5.625v12.75A5.631 5.631 0 0 1 18.375 24zM3.7 10.1a2.776 2.776 0 0 0-1.824 2.65v5.625a3.754 3.754 0 0 0 3.75 3.75h12.75a3.754 3.754 0 0 0 3.75-3.75V5.625a3.754 3.754 0 0 0-3.75-3.75H9.328a3.754 3.754 0 0 0-3.75 3.75v12.937a.937.937 0 0 1-1.875 0zm16.55-4.053a.937.937 0 0 0-.937-.937H8.391a.937.937 0 0 0 0 1.875h10.922a.937.937 0 0 0 .937-.938zm.047 8.765a.937.937 0 0 0-.937-.937H15.7a.937.937 0 0 0 0 1.875h3.656a.937.937 0 0 0 .944-.938zm-7.359 0a.937.937 0 0 0-.938-.937H8.391a.937.937 0 0 0 0 1.875H12a.937.937 0 0 0 .938-.938zm0 3.75a.937.937 0 0 0-.938-.937H8.391a.937.937 0 0 0 0 1.875H12a.937.937 0 0 0 .938-.938zm5.437 0a.937.937 0 0 0-.937-.937H15.7a.937.937 0 0 0 0 1.875h1.734a.937.937 0 0 0 .941-.938zM19.359 12h-6.8a.937.937 0 0 1 0-1.875h6.8a.937.937 0 0 1 0 1.875zM7.454 10.969A1.172 1.172 0 1 0 8.625 9.8a1.172 1.172 0 0 0-1.171 1.169z" class="cls-1" transform="translate(433 606)"/>
    </g>
</svg>
