<svg xmlns="http://www.w3.org/2000/svg" width="36" height="36" viewBox="0 0 36 36">
    <defs>
        <clipPath id="clip-path">
            <path id="Rectangle_27" d="M0 0H36V36H0z" class="cls-1" transform="translate(635 5410)"/>
        </clipPath>
        <style>
            .cls-1{fill:#009dff}
        </style>
    </defs>
    <g id="Mask_Group_5" clip-path="url(#clip-path)" transform="translate(-635 -5410)">
        <path id="telegram" d="M18 .968a18 18 0 1 0 18 18 18 18 0 0 0-18-18zM26.84 13.3l-2.954 13.92c-.218.987-.806 1.227-1.626.762l-4.5-3.317-2.17 2.09a1.136 1.136 0 0 1-.907.443L15 22.619l8.34-7.534c.363-.319-.08-.5-.559-.181l-10.304 6.488-4.442-1.386c-.965-.3-.987-.965.2-1.43l17.354-6.692c.811-.29 1.511.196 1.251 1.416z" class="cls-1" transform="translate(635 5409.032)"/>
    </g>
</svg>
