<svg xmlns="http://www.w3.org/2000/svg" width="24" height="24" viewBox="0 0 24 24">
    <defs>
        <clipPath id="clip-path">
            <path id="Rectangle_202" d="M0 0H24V24H0z" class="cls-1" transform="translate(180 734)"/>
        </clipPath>
        <style>
            .cls-1{fill:#d02029}
        </style>
    </defs>
    <g id="Mask_Group_54" clip-path="url(#clip-path)" transform="translate(-180 -734)">
        <path id="icons8-certificate" d="M14.769 2.769a2.837 2.837 0 0 0-1.644.548L11.6 4.385l-1.76.231h-.032l-.029.029A3.133 3.133 0 0 0 7.413 7.01l-.029.029v.029l-.23 1.788-1.067 1.384-.029.029v.031a3.02 3.02 0 0 0 .029 3.346l1.1 1.529.288 1.587L4.5 21.288 3.548 22.7h4.414l1.067 2.481.663 1.587.952-1.442 2.913-4.385a3.044 3.044 0 0 0 2.423 0l2.913 4.385.952 1.442.663-1.587 1.069-2.481h4.413l-.952-1.413-2.884-4.387.231-1.731 1.067-1.529.029-.029v-.029a2.972 2.972 0 0 0-.029-3.317L22.385 8.74l-.347-1.73h.029c0-.022-.025-.036-.029-.058A2.72 2.72 0 0 0 19.7 4.615h-.029l-1.731-.231-1.527-1.067a2.837 2.837 0 0 0-1.644-.548zm0 1.875a1.028 1.028 0 0 1 .577.173L16.99 6l.2.144.231.029 2.019.288h.029a.818.818 0 0 1 .75.75v.058l.381 2.048.029.2.144.173 1.183 1.644a1.172 1.172 0 0 1-.029 1.269l-1.3 1.817-.029.231-.288 2.019v.03a.918.918 0 0 1-.144.4l-.058.029v.029a.813.813 0 0 1-.548.288h-.06l-2.106.375-.231.029-.173.15-1.644 1.183a1.222 1.222 0 0 1-1.3-.029L12.548 18l-.173-.144-.26-.029-2.015-.289h-.029a.817.817 0 0 1-.635-.4.914.914 0 0 1-.115-.346v-.058l-.375-2.106-.029-.231-.144-.173-1.186-1.647a1.222 1.222 0 0 1 .029-1.3l1.154-1.5.144-.173.029-.26.257-1.931c0-.014.025-.014.029-.029a1.287 1.287 0 0 1 .923-.923c.014 0 .014-.025.029-.029l1.933-.26.231-.029.2-.144 1.644-1.183a1.028 1.028 0 0 1 .58-.172zm6.375 14.048l1.413 2.163h-2.22l-.231.577-.635 1.468-1.962-3 .433-.317 1.817-.317v.034c.022 0 .036-.025.058-.029a2.742 2.742 0 0 0 1.327-.579zm-12.75.029a2.631 2.631 0 0 0 1.442.663h.029l1.76.231.4.317-1.958 2.968-.635-1.471-.232-.573H6.981z" class="cls-1" transform="translate(177.23 731.23)"/>
    </g>
</svg>
