<svg xmlns="http://www.w3.org/2000/svg" id="logo" width="299" height="51.5" viewBox="0 0 299 51.5">
    <defs>
        <style>
            .cls-1,.cls-3{fill:#231f20}.cls-1,.cls-4{stroke:#231f20;stroke-miterlimit:10}.cls-4{fill:none}
        </style>
    </defs>
    <g id="Layer_1" transform="translate(0.5 0.5)">
        <g id="surface1">
            <path id="Path_862" d="M8.321.5H.5v7.854h7.821z" class="cls-1" transform="translate(-0.5 -0.5)"/>
            <path id="Path_863" fill="#d02029" stroke="#d02028" stroke-miterlimit="10" stroke-width="2px" d="M13.991 3.82h38.587v47.827H4.71V12.984h3.406v35.554h41.049V7.525H13.991z" transform="translate(-1.952 -1.647)"/>
            <path id="Path_864" d="M29.366 33.865v8.509q0 3.044.786 3.731a4.813 4.813 0 0 0 3.048.695 6.377 6.377 0 0 0 4.762-1.669A6.646 6.646 0 0 0 39.6 40.28q0-3.456-2.057-4.961c-1.375-.995-3.648-1.5-6.825-1.492h-1.31m0-8.273v6.1h1.88q3.93 0 5.581-1.211a4.693 4.693 0 0 0 1.644-4.065 5 5 0 0 0-1.389-3.724 5.177 5.177 0 0 0-3.769-1.354 5.261 5.261 0 0 0-3.164.655c-.544.445-.832 1.708-.832 3.672m1.841-6.358q8.181 0 11.535 1.61a5.524 5.524 0 0 1 3.354 5.367 5.137 5.137 0 0 1-2.289 4.373 14.427 14.427 0 0 1-6.812 2.127q5.443.733 8.017 2.631a6.079 6.079 0 0 1 2.587 5.151A7.431 7.431 0 0 1 46.769 44a7.712 7.712 0 0 1-2.4 2.69 10.616 10.616 0 0 1-4.069 1.569 43.625 43.625 0 0 1-7.336.465H18.1V46.6l1.245-.1a2.8 2.8 0 0 0 2.05-.772c.367-.445.55-1.558.55-3.345V25.625c0-1.8-.183-2.926-.55-3.371a2.85 2.85 0 0 0-2.05-.805l-1.218-.079v-2.14z" class="cls-3" transform="translate(-6.572 -6.971)"/>
            <path id="Path_865" d="M29.366 33.865v8.509q0 3.044.786 3.731a4.863 4.863 0 0 0 3.052.687 6.377 6.377 0 0 0 4.762-1.669A6.636 6.636 0 0 0 39.6 40.28q0-3.456-2.057-4.961t-6.819-1.492h-.694zm0-8.241v6.094l.74.033h1.14q3.93 0 5.581-1.2a4.756 4.756 0 0 0 1.644-4.071 4.966 4.966 0 0 0-1.4-3.718A5.17 5.17 0 0 0 33.3 21.4a5.272 5.272 0 0 0-3.157.655c-.535.435-.777 1.606-.777 3.57zm1.841-6.362q8.174 0 11.528 1.617a5.524 5.524 0 0 1 3.354 5.367 5.131 5.131 0 0 1-2.289 4.366 14.264 14.264 0 0 1-6.812 2.127c3.629.511 6.3 1.394 8.024 2.671a6.073 6.073 0 0 1 2.581 5.145 7.411 7.411 0 0 1-.819 3.469 7.6 7.6 0 0 1-2.4 2.69 10.419 10.419 0 0 1-4.074 1.538 43.036 43.036 0 0 1-7.336.471H18.1V46.6l1.245-.1a2.837 2.837 0 0 0 2.05-.772c.36-.445.544-1.564.55-3.351V25.625c0-1.8-.183-2.926-.55-3.371a2.87 2.87 0 0 0-2.05-.805L18.1 21.37v-2.14z" class="cls-4" transform="translate(-6.572 -6.971)"/>
            <path id="Path_866" d="M92.465 39.529h5.548v-2.081a7.634 7.634 0 0 0-.655-3.62 2.221 2.221 0 0 0-2.058-1.112 2.352 2.352 0 0 0-2.1 1.244 6.718 6.718 0 0 0-.753 3.489zm-.046 1.964v1.028c0 2.945.386 5.073 1.153 6.395a3.97 3.97 0 0 0 3.714 1.964 4.843 4.843 0 0 0 3.36-1.237 6.727 6.727 0 0 0 1.926-3.548h2.122a7.943 7.943 0 0 1-8.482 7.2 10.3 10.3 0 0 1-7.812-3.077A11.393 11.393 0 0 1 85.47 42a11.9 11.9 0 0 1 2.8-8.208 9.173 9.173 0 0 1 7.205-3.155 8.066 8.066 0 0 1 6.55 2.815q2.378 2.828 2.378 7.763v.34z" class="cls-1" transform="translate(-29.814 -10.907)"/>
            <path id="Path_867" d="M127.521 43.252c0 1.6.157 2.572.459 2.919a2.562 2.562 0 0 0 1.86.583v1.918h-11.45v-1.911a3.555 3.555 0 0 0 2.365-.655c.4-.4.544-1.309.544-2.88V25.24c0-1.532-.17-2.474-.524-2.834a3.933 3.933 0 0 0-2.378-.655v-1.9h1.127c1.389 0 2.758-.065 4.087-.19s2.62-.314 3.93-.556z" class="cls-1" transform="translate(-41.172 -6.926)"/>
            <path id="Path_868" d="M147.691 43.252c0 1.6.157 2.572.459 2.919a2.621 2.621 0 0 0 1.86.583v1.918h-11.45v-1.911a3.49 3.49 0 0 0 2.365-.655c.367-.4.544-1.309.544-2.88V25.24c0-1.532-.177-2.474-.524-2.834a3.941 3.941 0 0 0-2.384-.655v-1.9h1.133q2.083 0 4.081-.19t3.93-.556z" class="cls-1" transform="translate(-48.13 -6.926)"/>
            <path id="Path_869" d="M171.3 40.893a16.778 16.778 0 0 0-5.017 2.736 4.122 4.122 0 0 0-1.533 3.135 3 3 0 0 0 .773 2.108 2.49 2.49 0 0 0 1.932.818 3.144 3.144 0 0 0 2.945-1.76 11.536 11.536 0 0 0 .963-5.354v-1.7m0 8.725a11.356 11.356 0 0 1-3.314 2.749 7.825 7.825 0 0 1-3.694.9 5.524 5.524 0 0 1-3.93-1.394 4.8 4.8 0 0 1-1.493-3.659 6.258 6.258 0 0 1 2.856-5.079q2.856-2.153 9.576-4.254v-1.525a5.524 5.524 0 0 0-.838-3.489 3.626 3.626 0 0 0-2.875-1 4.928 4.928 0 0 0-2.03.4c-.59.268-.878.537-.878.805 0 .033.059.118.19.249a3.036 3.036 0 0 1 1 2.18 2.159 2.159 0 0 1-.747 1.7 2.811 2.811 0 0 1-1.965.655 2.89 2.89 0 0 1-2.175-.779 3 3 0 0 1-.786-2.225 4.354 4.354 0 0 1 2.424-3.75 11.561 11.561 0 0 1 6.19-1.492 13.05 13.05 0 0 1 4.284.655 7.415 7.415 0 0 1 3.052 1.885 4.582 4.582 0 0 1 1.061 1.826 13.43 13.43 0 0 1 .314 3.469v9.589a2.931 2.931 0 0 0 .183 1.309.655.655 0 0 0 .655.308.8.8 0 0 0 .655-.353 1.962 1.962 0 0 0 .314-.969h1.533a5.6 5.6 0 0 1-1.31 3.672 4.358 4.358 0 0 1-3.341 1.309 5.17 5.17 0 0 1-3.2-.969 4.614 4.614 0 0 1-1.742-2.684" class="cls-3" transform="translate(-55.156 -10.89)"/>
            <path id="Path_870" d="M171.271 40.894a16.779 16.779 0 0 0-5.017 2.736 4.123 4.123 0 0 0-1.533 3.135 3 3 0 0 0 .773 2.108 2.523 2.523 0 0 0 1.965.825 3.151 3.151 0 0 0 2.934-1.767 11.536 11.536 0 0 0 .963-5.354v-1.042c0-.235-.079-.452-.085-.641zm0 8.725a11.355 11.355 0 0 1-3.314 2.749 7.825 7.825 0 0 1-3.694.9 5.544 5.544 0 0 1-3.93-1.394 4.822 4.822 0 0 1-1.493-3.652 6.235 6.235 0 0 1 2.856-5.079q2.856-2.14 9.576-4.261v-1.529a5.524 5.524 0 0 0-.838-3.489 3.628 3.628 0 0 0-2.875-1.008 4.837 4.837 0 0 0-2.031.406c-.59.268-.878.53-.878.8 0 .039.059.124.19.249a3.056 3.056 0 0 1 1 2.186 2.133 2.133 0 0 1-.747 1.689 2.772 2.772 0 0 1-1.965.655 2.942 2.942 0 0 1-2.116-.785 3 3 0 0 1-.786-2.225 4.354 4.354 0 0 1 2.424-3.75 11.574 11.574 0 0 1 6.19-1.492 13.043 13.043 0 0 1 4.284.655 7.5 7.5 0 0 1 3.052 1.892 4.581 4.581 0 0 1 1.061 1.82 13.43 13.43 0 0 1 .314 3.469v9.589a2.945 2.945 0 0 0 .183 1.309.655.655 0 0 0 .655.308.786.786 0 0 0 .655-.36 1.845 1.845 0 0 0 .314-.962h1.533a5.581 5.581 0 0 1-1.31 3.672 4.338 4.338 0 0 1-3.341 1.309 5.184 5.184 0 0 1-3.2-.969 4.641 4.641 0 0 1-1.769-2.702z" class="cls-4" transform="translate(-55.125 -10.89)"/>
            <path id="Path_871" d="M195.15 43.33h10.893V49H195.15z" class="cls-1" transform="translate(-67.654 -15.296)"/>
            <path id="Path_872" d="M221.723 49.8h-2.083l-.34-11.562h2.031a17.131 17.131 0 0 0 4.323 7 8.951 8.951 0 0 0 6.164 2.356 4.974 4.974 0 0 0 3.439-1.165 3.926 3.926 0 0 0 1.31-3.063 3.716 3.716 0 0 0-1.035-2.657 10.069 10.069 0 0 0-3.524-2.088l-2.273-.89a42.15 42.15 0 0 1-5.574-2.507 9.495 9.495 0 0 1-3.275-2.926 6.673 6.673 0 0 1-1.055-3.731 7.721 7.721 0 0 1 2.62-6.022 9.659 9.659 0 0 1 6.714-2.363 15.108 15.108 0 0 1 4.795.844 22.028 22.028 0 0 0 2.83.838 1.14 1.14 0 0 0 .838-.386 4.051 4.051 0 0 0 .727-1.263h1.841l.111 9.2h-1.834a11.781 11.781 0 0 0-3.53-5.236 8.375 8.375 0 0 0-5.371-1.748 5.636 5.636 0 0 0-3.511 1 3.161 3.161 0 0 0-1.31 2.651q0 2.468 6.661 4.955l.151.059c2.365.864 4.041 1.545 5.044 2.036a12.376 12.376 0 0 1 2.424 1.479 8.556 8.556 0 0 1 2.279 2.88 8.308 8.308 0 0 1 .721 3.508 8.107 8.107 0 0 1-2.686 6.421 10.712 10.712 0 0 1-7.31 2.356 12.985 12.985 0 0 1-3.013-.353 21.131 21.131 0 0 1-3.367-1.119l-.819-.367a4.75 4.75 0 0 0-1.533-.537 1.153 1.153 0 0 0-.963.615 4.618 4.618 0 0 0-.589 1.774" class="cls-3" transform="translate(-75.985 -7.298)"/>
            <path id="Path_873" d="M221.72 49.8h-2.083l-.347-11.559h2.031a17.183 17.183 0 0 0 4.33 7 8.951 8.951 0 0 0 6.164 2.356 4.993 4.993 0 0 0 3.439-1.165 3.926 3.926 0 0 0 1.31-3.063 3.749 3.749 0 0 0-1.041-2.664A9.957 9.957 0 0 0 232 38.628c-.511-.209-1.277-.5-2.293-.9a41.359 41.359 0 0 1-5.574-2.513 9.554 9.554 0 0 1-3.275-2.926 6.764 6.764 0 0 1-1.035-3.718 7.747 7.747 0 0 1 2.62-6.015 9.659 9.659 0 0 1 6.72-2.363 15.075 15.075 0 0 1 4.795.838 21.024 21.024 0 0 0 2.83.831 1.114 1.114 0 0 0 .838-.386 4.1 4.1 0 0 0 .727-1.257h1.841l.111 9.2h-1.834a11.828 11.828 0 0 0-3.53-5.276 8.414 8.414 0 0 0-5.371-1.748 5.636 5.636 0 0 0-3.511 1 3.187 3.187 0 0 0-1.31 2.618q0 2.468 6.661 4.955l.151.059q3.537 1.309 5.044 2.042a12.375 12.375 0 0 1 2.424 1.479 8.556 8.556 0 0 1 2.279 2.88 8.2 8.2 0 0 1 .721 3.574 8.1 8.1 0 0 1-2.686 6.421 10.737 10.737 0 0 1-7.31 2.363 13.409 13.409 0 0 1-3.02-.36 21.058 21.058 0 0 1-3.36-1.126l-.825-.367a4.915 4.915 0 0 0-1.533-.537 1.146 1.146 0 0 0-.956.615 4.737 4.737 0 0 0-.619 1.789z" class="cls-4" transform="translate(-75.982 -7.302)"/>
            <path id="Path_874" d="M261.316 36.107a5.079 5.079 0 0 0-1.4-2.029 3.7 3.7 0 0 0-2-.589V31.61H269.7v1.879a4.417 4.417 0 0 0-1.965.406 1.244 1.244 0 0 0-.524 1.119 4.267 4.267 0 0 0 .229 1.185 12.439 12.439 0 0 0 .59 1.512l3.5 7.062 2.509-6.624c.236-.655.4-1.178.511-1.6a4.423 4.423 0 0 0 .164-1.06 1.5 1.5 0 0 0-.655-1.348 5.9 5.9 0 0 0-2.345-.655V31.61h8.862v1.879a4.239 4.239 0 0 0-2.135 1.159 11.513 11.513 0 0 0-1.9 3.5l-5.472 13.432q-2.188 5.3-3.9 6.964a5.937 5.937 0 0 1-4.3 1.669 4.849 4.849 0 0 1-3.275-1.087 3.416 3.416 0 0 1-1.264-2.723 3.114 3.114 0 0 1 .832-2.212 2.706 2.706 0 0 1 2.037-.89 3.008 3.008 0 0 1 1.965.655 1.963 1.963 0 0 1 .766 1.571 2.755 2.755 0 0 1-.655 1.728 5.824 5.824 0 0 0-.655.929c0 .111.079.2.223.268a1.455 1.455 0 0 0 .6.092 3.835 3.835 0 0 0 2.948-1.7 12.182 12.182 0 0 0 2.135-4.686z" class="cls-1" transform="translate(-89.306 -11.247)"/>
            <path id="Path_875" d="M296.8 53.3h-1.356v-7.617h1.6a8.934 8.934 0 0 0 2.889 4.071 6.828 6.828 0 0 0 4.271 1.453 3.421 3.421 0 0 0 2.24-.655 2.2 2.2 0 0 0 .825-1.8 2.8 2.8 0 0 0-.655-1.885 8.8 8.8 0 0 0-2.659-1.748l-.747-.38q-7.971-3.927-7.965-7.73a6.045 6.045 0 0 1 1.867-4.582 6.625 6.625 0 0 1 4.742-1.78 11.207 11.207 0 0 1 3.93.727l1.965.727a1.225 1.225 0 0 0 .917-.38 1.91 1.91 0 0 0 .459-1.073h1.31v6.84h-1.31a12.387 12.387 0 0 0-3.183-3.62 6.088 6.088 0 0 0-3.59-1.237 3.624 3.624 0 0 0-2.194.655 1.924 1.924 0 0 0-.832 1.617q0 1.453 3.426 3.024l.347.151q5.626 2.618 7.113 4.287a6.719 6.719 0 0 1-.609 9.078 7.732 7.732 0 0 1-5.378 1.885 11.208 11.208 0 0 1-3.675-.655 16.62 16.62 0 0 0-2.161-.694 1.186 1.186 0 0 0-.786.34 4.069 4.069 0 0 0-.786 1.041" class="cls-3" transform="translate(-102.186 -10.914)"/>
            <path id="Path_876" d="M296.807 53.3h-1.362v-7.617h1.6a8.967 8.967 0 0 0 2.889 4.071 6.828 6.828 0 0 0 4.271 1.453 3.421 3.421 0 0 0 2.24-.655 2.192 2.192 0 0 0 .825-1.8 2.813 2.813 0 0 0-.655-1.885 8.882 8.882 0 0 0-2.659-1.748l-.747-.38q-7.971-3.927-7.965-7.73a6.045 6.045 0 0 1 1.867-4.582 6.625 6.625 0 0 1 4.742-1.78 11.207 11.207 0 0 1 3.93.727l1.965.727a1.206 1.206 0 0 0 .917-.38 1.825 1.825 0 0 0 .459-1.073h1.31v6.84h-1.31a12.387 12.387 0 0 0-3.183-3.62 6.094 6.094 0 0 0-3.6-1.237 3.617 3.617 0 0 0-2.188.655 1.924 1.924 0 0 0-.832 1.617q0 1.453 3.426 3.024l.341.151q5.64 2.618 7.113 4.287a6.673 6.673 0 0 1-.616 9.033 7.732 7.732 0 0 1-5.378 1.885 11.208 11.208 0 0 1-3.675-.655 16.951 16.951 0 0 0-2.161-.694 1.186 1.186 0 0 0-.786.34 4.072 4.072 0 0 0-.786 1.021z" class="cls-4" transform="translate(-102.186 -10.914)"/>
            <path id="Path_877" d="M326.544 29.3h-2.934v-1.968a7.8 7.8 0 0 0 4.271-2.54 15.791 15.791 0 0 0 2.948-5.642h1.919v8.15h5.528v1.964h-5.568v12.77a4.618 4.618 0 0 0 .478 2.422 1.69 1.69 0 0 0 1.552.779 2.267 2.267 0 0 0 1.932-.884 4.2 4.2 0 0 0 .655-2.553v-.518h1.965v.52a8.361 8.361 0 0 1-1.664 5.629 7.205 7.205 0 0 1-9.5.268 6.671 6.671 0 0 1-1.585-4.811z" class="cls-1" transform="translate(-111.972 -6.943)"/>
            <path id="Path_878" d="M358.659 39.529h5.554v-2.081a7.555 7.555 0 0 0-.655-3.62 2.2 2.2 0 0 0-2.057-1.113 2.352 2.352 0 0 0-2.1 1.244 6.855 6.855 0 0 0-.76 3.489zm-.039 1.964v1.028c0 2.945.386 5.073 1.153 6.395a3.97 3.97 0 0 0 3.714 1.964 4.843 4.843 0 0 0 3.36-1.237 6.728 6.728 0 0 0 1.926-3.548h2.109a7.943 7.943 0 0 1-8.482 7.2 10.3 10.3 0 0 1-7.814-3.076A11.349 11.349 0 0 1 351.67 42a11.928 11.928 0 0 1 2.8-8.208 9.173 9.173 0 0 1 7.2-3.155 8.066 8.066 0 0 1 6.55 2.815q2.377 2.828 2.371 7.763v.34z" class="cls-1" transform="translate(-121.653 -10.907)"/>
            <path id="Path_879" d="M404.5 44.854a9.921 9.921 0 0 1-2.489 6.2 7.509 7.509 0 0 1-5.633 2.239 9.828 9.828 0 0 1-7.559-3.129A11.479 11.479 0 0 1 385.9 42a11.839 11.839 0 0 1 2.856-8.221 9.52 9.52 0 0 1 7.388-3.142 9.017 9.017 0 0 1 5.744 1.813 5.451 5.451 0 0 1 2.319 4.418 3.16 3.16 0 0 1-.806 2.265 2.772 2.772 0 0 1-2.122.851 3.276 3.276 0 0 1-2.332-.812 2.669 2.669 0 0 1-.884-2.075 3.808 3.808 0 0 1 1.186-2.618c.229-.229.347-.38.347-.458 0-.367-.242-.655-.72-.936a3.775 3.775 0 0 0-1.795-.38 3.525 3.525 0 0 0-3.275 2.409 17.748 17.748 0 0 0-1.12 7.141 14.232 14.232 0 0 0 1.159 6.506 3.727 3.727 0 0 0 3.471 2.16 4.37 4.37 0 0 0 3.406-1.551 8.845 8.845 0 0 0 1.841-4.5z" class="cls-1" transform="translate(-133.462 -10.909)"/>
            <path id="Path_880" d="M439.687 43.252c0 1.571.177 2.533.524 2.893a3.656 3.656 0 0 0 2.325.609v1.918h-11.4v-1.911a2.621 2.621 0 0 0 1.827-.563c.3-.334.452-1.309.452-2.939v-7.632a12.59 12.59 0 0 0-.537-4.431 1.854 1.854 0 0 0-1.821-1.25 3.152 3.152 0 0 0-2.967 2.239 18.815 18.815 0 0 0-.956 7v4.065c0 1.6.157 2.572.458 2.919a2.582 2.582 0 0 0 1.854.589v1.911H418v-1.908a3.464 3.464 0 0 0 2.365-.655c.36-.4.55-1.309.55-2.88V25.24c0-1.532-.177-2.474-.524-2.834a3.941 3.941 0 0 0-2.384-.655v-1.9h1.127c1.4 0 2.751-.065 4.087-.19s2.62-.314 3.93-.556V30.5a7.983 7.983 0 0 1 2.718-2.618 7.065 7.065 0 0 1 3.524-.9A5.58 5.58 0 0 1 438.181 29q1.513 2.029 1.507 6.395z" class="cls-1" transform="translate(-144.536 -6.926)"/>
        </g>
    </g>
</svg>
