<svg xmlns="http://www.w3.org/2000/svg" width="72" height="72" viewBox="0 0 72 72">
    <defs>
        <clipPath id="clip-path">
            <path id="Rectangle_133" d="M0 0H72V72H0z" class="cls-1" transform="translate(756 4695)"/>
        </clipPath>
        <style>
            .cls-1{fill:#d02029}
        </style>
    </defs>
    <g id="Mask_Group_41" clip-path="url(#clip-path)" transform="translate(-756 -4695)">
        <path id="icons8-connection_to_account" d="M32.4 12a8.4 8.4 0 1 0 8.4 8.4 8.418 8.418 0 0 0-8.4-8.4zm31.2 0a8.4 8.4 0 1 0 8.4 8.4 8.418 8.418 0 0 0-8.4-8.4zm-31.2 2.4a6 6 0 1 1-6 6 5.981 5.981 0 0 1 6-6zm31.2 0a6 6 0 1 1-6 6 5.981 5.981 0 0 1 6-6zm-36 16.8a9.676 9.676 0 0 0-9.539 8.484c-.006.066-.006.133-.012.2a7.277 7.277 0 0 0-3.694 2.039 6.929 6.929 0 0 0-2.155 4.823c0 3.385 2.787 6.755 8.548 7.943s14.6.465 27.734-3.912c12.509-4.18 21.035-4.93 26.238-4.05a10.878 10.878 0 0 1 5.416 2.217 3.829 3.829 0 0 1 1.464 2.965 4.954 4.954 0 0 1-1.17 3.211A3.984 3.984 0 0 1 78 56.452v-6.244a8.325 8.325 0 0 0-2.4-.984v9.241a3.614 3.614 0 0 1-2.892 3.527l-.736.148a1.2 1.2 0 0 0-2.353.471H69.6V79.2a2.407 2.407 0 0 1-2.4 2.4H60a2.407 2.407 0 0 1-2.4-2.4V62.616h-.019a1.2 1.2 0 0 0-2.351-.471l-.738-.148a3.6 3.6 0 0 1-2.892-3.532v-6.338c-.684.216-1.38.433-2.088.673H49.2v5.665a6 6 0 0 0 4.823 5.878l1.177.241V79.2A4.8 4.8 0 0 0 60 84h7.2a4.8 4.8 0 0 0 4.8-4.8V64.584l1.177-.241a5.951 5.951 0 0 0 4.15-3.143h.012a5.838 5.838 0 0 0 .637-2.316 6.579 6.579 0 0 0 4.259-2.184A7.276 7.276 0 0 0 84 51.909a6.371 6.371 0 0 0-2.278-4.765 13.133 13.133 0 0 0-6.607-2.784c-5.836-.986-14.662-.114-27.4 4.141-12.9 4.3-21.406 4.885-26.489 3.837S14.6 48.872 14.6 46.746a4.681 4.681 0 0 1 1.455-3.127A5.184 5.184 0 0 1 18 42.4v6.07a7.356 7.356 0 0 0 2.4 1.078V40.8a7.19 7.19 0 0 1 7.2-7.2h9.6a7.206 7.206 0 0 1 7.2 7.2v6.073c.792-.24 1.584-.5 2.4-.769V40.8a9.613 9.613 0 0 0-9.6-9.6zm31.2 0a9.613 9.613 0 0 0-9.6 9.6v4.523c.816-.252 1.62-.492 2.4-.72V40.8a7.206 7.206 0 0 1 7.2-7.2h9.6a7.206 7.206 0 0 1 7.2 7.2v1.069a21.625 21.625 0 0 1 2.4.551V40.8a9.613 9.613 0 0 0-9.6-9.6zm-33.6 9.6a1.2 1.2 0 1 0 1.2 1.2 1.2 1.2 0 0 0-1.2-1.2zm14.4 0a1.2 1.2 0 1 0 1.2 1.2 1.2 1.2 0 0 0-1.2-1.2zm16.8 0a1.2 1.2 0 1 0 1.2 1.2 1.2 1.2 0 0 0-1.2-1.2zm-31.2 4.8a1.2 1.2 0 1 0 1.2 1.2 1.2 1.2 0 0 0-1.2-1.2zm14.4 0a1.2 1.2 0 1 0 1.2 1.2 1.2 1.2 0 0 0-1.2-1.2zm16.8 6a1.2 1.2 0 1 0 1.2 1.2 1.2 1.2 0 0 0-1.2-1.2zm14.4 0a1.2 1.2 0 1 0 1.2 1.2 1.2 1.2 0 0 0-1.2-1.2zm-24 2.077c-.348.108-.684.215-1.02.323-.468.132-.924.264-1.38.4v4.069a3.6 3.6 0 0 1-2.892 3.527l-.736.148a1.2 1.2 0 0 0-2.353.471H38.4V79.2a2.407 2.407 0 0 1-2.4 2.4h-7.2a2.407 2.407 0 0 1-2.4-2.4V62.616h-.019a1.2 1.2 0 0 0-2.351-.471l-.738-.148a3.6 3.6 0 0 1-2.892-3.532v-1.512l-2.243-.553c-.06-.012-.109-.035-.157-.047v2.112a6 6 0 0 0 4.823 5.878l1.177.241V79.2a4.8 4.8 0 0 0 4.8 4.8H36a4.8 4.8 0 0 0 4.8-4.8V64.584l1.177-.241a6 6 0 0 0 4.823-5.878v-4.788zM39.6 56.4a1.2 1.2 0 1 0 1.2 1.2 1.2 1.2 0 0 0-1.2-1.2zm16.8 0a1.2 1.2 0 1 0 1.2 1.2 1.2 1.2 0 0 0-1.2-1.2zm14.4 0a1.2 1.2 0 1 0 1.2 1.2 1.2 1.2 0 0 0-1.2-1.2z" class="cls-1" transform="translate(743.901 4683)"/>
    </g>
</svg>
