<svg xmlns="http://www.w3.org/2000/svg" width="72" height="72" viewBox="0 0 72 72">
    <defs>
        <clipPath id="clip-path">
            <path id="Rectangle_137" d="M0 0H72V72H0z" class="cls-1" transform="translate(756 5025)"/>
        </clipPath>
        <style>
            .cls-1{fill:#d02029}
        </style>
    </defs>
    <g id="Mask_Group_42" clip-path="url(#clip-path)" transform="translate(-756 -5025)">
        <path id="icons8-sales_performance" d="M68.727 10.909a15.572 15.572 0 0 0-7.472 1.734c-1.983 1.1-3.437 2.774-3.437 4.811 0 .057.013.11.015.166h-.015v52.364c0 2.007 1.469 3.633 3.45 4.7a17.41 17.41 0 0 0 14.919 0c1.981-1.067 3.45-2.693 3.45-4.7V17.621h-.015c0-.056.015-.109.015-.166 0-2.037-1.454-3.71-3.437-4.811a15.572 15.572 0 0 0-7.473-1.735zm0 2.182a13.609 13.609 0 0 1 6.413 1.46c1.571.873 2.314 1.929 2.314 2.9s-.743 2.031-2.314 2.9a14.82 14.82 0 0 1-12.827 0C60.743 19.486 60 18.43 60 17.455s.743-2.031 2.314-2.9a13.609 13.609 0 0 1 6.413-1.464zm-4.364 2.182a1.091 1.091 0 1 0 1.091 1.091 1.091 1.091 0 0 0-1.09-1.091zm4.364 0a1.091 1.091 0 1 0 1.091 1.091 1.091 1.091 0 0 0-1.091-1.091zm4.364 0a1.091 1.091 0 1 0 1.091 1.091 1.091 1.091 0 0 0-1.091-1.091zm-6.545 3.273a1.091 1.091 0 1 0 1.091 1.091 1.091 1.091 0 0 0-1.092-1.092zm4.364 0a1.091 1.091 0 1 0 1.09 1.09 1.091 1.091 0 0 0-1.091-1.091zM60 21.426a9.122 9.122 0 0 0 1.255.839 16.964 16.964 0 0 0 14.945 0 9.121 9.121 0 0 0 1.255-.839V24.1c0 .913-.728 1.931-2.3 2.778a15.26 15.26 0 0 1-12.852 0C60.728 26.031 60 25.014 60 24.1zm10.909 3.665A1.091 1.091 0 1 0 72 26.182a1.091 1.091 0 0 0-1.091-1.091zm6.545 2.883v2.738c0 .913-.728 1.931-2.3 2.778a15.26 15.26 0 0 1-12.852 0c-1.573-.847-2.3-1.866-2.3-2.778v-2.736a9.148 9.148 0 0 0 1.268.825 17.4 17.4 0 0 0 14.919 0 9.164 9.164 0 0 0 1.266-.827zm-58.909 2.571a15.572 15.572 0 0 0-7.472 1.734c-1.983 1.1-3.437 2.774-3.437 4.811 0 .079.017.154.021.232h-.021v19.57c0 .023.006.044.006.066h-.006v13.026c0 2.007 1.469 3.633 3.45 4.7a15.935 15.935 0 0 0 7.46 1.679A15.935 15.935 0 0 0 26 74.685c1.981-1.067 3.45-2.693 3.45-4.7V56.96h-.006c0-.022.006-.043.006-.066V37.323h-.021c0-.078.021-.153.021-.232 0-2.037-1.454-3.71-3.437-4.811a15.572 15.572 0 0 0-7.468-1.735zm52.364 1.091A1.091 1.091 0 1 0 72 32.727a1.091 1.091 0 0 0-1.091-1.091zm-52.364 1.091a13.609 13.609 0 0 1 6.413 1.46c1.571.873 2.314 1.929 2.314 2.9s-.743 2.031-2.314 2.9a13.609 13.609 0 0 1-6.413 1.46A13.609 13.609 0 0 1 12.132 40c-1.571-.873-2.314-1.929-2.314-2.9s.743-2.031 2.314-2.9a13.609 13.609 0 0 1 6.413-1.473zM60 34.587a9.149 9.149 0 0 0 1.268.825 17.41 17.41 0 0 0 14.919 0 9.149 9.149 0 0 0 1.268-.825v2.67c0 .913-.728 1.931-2.3 2.778a15.26 15.26 0 0 1-12.852 0c-1.573-.847-2.3-1.866-2.3-2.778zm-45.818.322A1.091 1.091 0 1 0 15.273 36a1.091 1.091 0 0 0-1.091-1.091zm4.364 0A1.091 1.091 0 1 0 19.636 36a1.091 1.091 0 0 0-1.091-1.091zm4.364 0A1.091 1.091 0 1 0 24 36a1.091 1.091 0 0 0-1.091-1.091zm-6.545 3.273a1.091 1.091 0 1 0 1.091 1.091 1.091 1.091 0 0 0-1.092-1.091zm4.364 0a1.091 1.091 0 1 0 1.091 1.091 1.091 1.091 0 0 0-1.093-1.091zm50.182 0A1.091 1.091 0 1 0 72 39.273a1.091 1.091 0 0 0-1.091-1.091zM9.818 41.063a9.121 9.121 0 0 0 1.255.839 15.572 15.572 0 0 0 7.472 1.734 15.572 15.572 0 0 0 7.473-1.736 9.122 9.122 0 0 0 1.255-.839V43.8c0 .913-.728 1.931-2.3 2.778A13.989 13.989 0 0 1 18.545 48a13.988 13.988 0 0 1-6.426-1.419c-1.573-.847-2.3-1.867-2.3-2.781v-2.737zm50.182.07a9.149 9.149 0 0 0 1.268.825 17.41 17.41 0 0 0 14.919 0 9.148 9.148 0 0 0 1.268-.825v2.6c0 .913-.728 1.931-2.3 2.778a15.26 15.26 0 0 1-12.852 0c-1.573-.847-2.3-1.865-2.3-2.778zm-16.364 2.5a15.572 15.572 0 0 0-7.472 1.734c-1.983 1.1-3.437 2.774-3.437 4.811 0 .068.014.131.017.2h-.017v19.6c0 2.007 1.469 3.633 3.45 4.7a15.935 15.935 0 0 0 7.46 1.679 15.935 15.935 0 0 0 7.46-1.679c1.981-1.067 3.45-2.693 3.45-4.7V50.38h-.017c0-.067.017-.131.017-.2 0-2.037-1.454-3.71-3.437-4.811a15.572 15.572 0 0 0-7.474-1.733zm-22.909 1.094a1.091 1.091 0 1 0 1.091 1.091 1.091 1.091 0 0 0-1.091-1.091zm50.182 0A1.091 1.091 0 1 0 72 45.818a1.091 1.091 0 0 0-1.091-1.091zm-27.273 1.091a13.609 13.609 0 0 1 6.413 1.46c1.571.873 2.314 1.929 2.314 2.9s-.743 2.031-2.314 2.9a13.609 13.609 0 0 1-6.413 1.46 13.609 13.609 0 0 1-6.413-1.46c-1.571-.873-2.314-1.928-2.314-2.9s.743-2.031 2.314-2.9a13.609 13.609 0 0 1 6.413-1.46zm33.819 1.792v2.738c0 .913-.728 1.931-2.3 2.778a15.26 15.26 0 0 1-12.852 0c-1.573-.847-2.3-1.866-2.3-2.778v-2.736a9.148 9.148 0 0 0 1.268.825 17.4 17.4 0 0 0 14.919 0 9.165 9.165 0 0 0 1.265-.827zm-67.636.066a9.146 9.146 0 0 0 1.268.827 15.933 15.933 0 0 0 7.46 1.679A15.935 15.935 0 0 0 26 48.5a9.149 9.149 0 0 0 1.268-.825v2.67c0 .913-.728 1.931-2.3 2.778a13.989 13.989 0 0 1-6.426 1.419 13.989 13.989 0 0 1-6.426-1.419c-1.573-.847-2.3-1.866-2.3-2.778zM39.273 48a1.091 1.091 0 1 0 1.091 1.091A1.091 1.091 0 0 0 39.273 48zm4.364 0a1.091 1.091 0 1 0 1.091 1.091A1.091 1.091 0 0 0 43.636 48zM48 48a1.091 1.091 0 1 0 1.091 1.091A1.091 1.091 0 0 0 48 48zm-27.273 3.273a1.091 1.091 0 1 0 1.091 1.091 1.091 1.091 0 0 0-1.091-1.091zm20.727 0a1.091 1.091 0 1 0 1.091 1.091 1.091 1.091 0 0 0-1.09-1.091zm4.364 0a1.091 1.091 0 1 0 1.091 1.091 1.091 1.091 0 0 0-1.091-1.091zm25.091 0A1.091 1.091 0 1 0 72 52.364a1.091 1.091 0 0 0-1.091-1.091zm-36 2.881a9.122 9.122 0 0 0 1.255.839 15.572 15.572 0 0 0 7.472 1.734 15.572 15.572 0 0 0 7.472-1.734 9.122 9.122 0 0 0 1.255-.839v2.706c0 .913-.728 1.931-2.3 2.778a13.989 13.989 0 0 1-6.426 1.419 13.991 13.991 0 0 1-6.426-1.419c-1.573-.847-2.3-1.865-2.3-2.778v-2.707zm-25.091.07a9.149 9.149 0 0 0 1.268.825 15.935 15.935 0 0 0 7.46 1.679A15.935 15.935 0 0 0 26 55.048a9.149 9.149 0 0 0 1.268-.825v2.67c0 .913-.728 1.931-2.3 2.778a13.989 13.989 0 0 1-6.426 1.419 13.989 13.989 0 0 1-6.426-1.419c-1.573-.847-2.3-1.866-2.3-2.778zm50.182 0a9.149 9.149 0 0 0 1.268.825 17.41 17.41 0 0 0 14.919 0 9.149 9.149 0 0 0 1.268-.825v2.67c0 .913-.728 1.931-2.3 2.778a15.26 15.26 0 0 1-12.852 0c-1.573-.847-2.3-1.866-2.3-2.778v-2.67zm-39.273 3.594a1.091 1.091 0 1 0 1.091 1.091 1.091 1.091 0 0 0-1.091-1.091zm25.091 0a1.091 1.091 0 1 0 1.091 1.091 1.091 1.091 0 0 0-1.091-1.091zm25.091 0A1.091 1.091 0 1 0 72 58.909a1.091 1.091 0 0 0-1.091-1.091zm-36 2.917a9.149 9.149 0 0 0 1.268.825 15.937 15.937 0 0 0 7.46 1.679A15.935 15.935 0 0 0 51.1 61.56a9.15 9.15 0 0 0 1.268-.825v2.7c0 .913-.728 1.931-2.3 2.778a13.989 13.989 0 0 1-6.426 1.419 13.989 13.989 0 0 1-6.426-1.419c-1.573-.847-2.3-1.866-2.3-2.778zm-25.091.034a9.149 9.149 0 0 0 1.268.825 15.935 15.935 0 0 0 7.46 1.679A15.935 15.935 0 0 0 26 61.594a9.148 9.148 0 0 0 1.268-.825v2.67c0 .913-.728 1.931-2.3 2.778a13.989 13.989 0 0 1-6.426 1.419 13.988 13.988 0 0 1-6.426-1.419c-1.573-.847-2.3-1.867-2.3-2.781v-2.667zm50.182 0a9.149 9.149 0 0 0 1.268.825 17.41 17.41 0 0 0 14.919 0 9.148 9.148 0 0 0 1.268-.825v2.67c0 .913-.728 1.931-2.3 2.778a15.26 15.26 0 0 1-12.852 0c-1.573-.847-2.3-1.866-2.3-2.778zm-39.273 3.595a1.091 1.091 0 1 0 1.091 1.091 1.091 1.091 0 0 0-1.091-1.091zm25.091 0a1.091 1.091 0 1 0 1.091 1.091 1.091 1.091 0 0 0-1.091-1.091zm25.091 0A1.091 1.091 0 1 0 72 65.455a1.091 1.091 0 0 0-1.091-1.091zM9.818 67.313a9.146 9.146 0 0 0 1.268.827 15.933 15.933 0 0 0 7.46 1.679A15.935 15.935 0 0 0 26 68.139a9.149 9.149 0 0 0 1.268-.825v2.67c0 .913-.728 1.931-2.3 2.778a13.989 13.989 0 0 1-6.426 1.419 13.989 13.989 0 0 1-6.426-1.419c-1.573-.847-2.3-1.866-2.3-2.778zm25.091 0a9.149 9.149 0 0 0 1.268.825 15.935 15.935 0 0 0 7.46 1.679 15.935 15.935 0 0 0 7.46-1.679 9.15 9.15 0 0 0 1.268-.825v2.67c0 .913-.728 1.931-2.3 2.778a13.989 13.989 0 0 1-6.426 1.419 13.989 13.989 0 0 1-6.426-1.419c-1.573-.847-2.3-1.866-2.3-2.778zm25.091 0a9.15 9.15 0 0 0 1.268.825 17.41 17.41 0 0 0 14.919 0 9.149 9.149 0 0 0 1.268-.825v2.67c0 .913-.728 1.931-2.3 2.778a15.26 15.26 0 0 1-12.852 0C60.728 71.916 60 70.9 60 69.984zm-39.273 3.596A1.091 1.091 0 1 0 21.818 72a1.091 1.091 0 0 0-1.091-1.091zm25.091 0A1.091 1.091 0 1 0 46.909 72a1.091 1.091 0 0 0-1.091-1.091zm25.091 0A1.091 1.091 0 1 0 72 72a1.091 1.091 0 0 0-1.091-1.091z" class="cls-1" transform="translate(748.363 5017.363)"/>
    </g>
</svg>
