<svg xmlns="http://www.w3.org/2000/svg" width="72" height="72" viewBox="0 0 72 72">
    <defs>
        <clipPath id="clip-path">
            <path id="Rectangle_139" d="M0 0H72V72H0z" class="cls-1" transform="translate(1284 5025)"/>
        </clipPath>
        <style>
            .cls-1{fill:#d02029}
        </style>
    </defs>
    <g id="Mask_Group_43" clip-path="url(#clip-path)" transform="translate(-1284 -5025)">
        <path id="icons8-graduate" d="M44.792 7.506L12.48 27.982l3.2 2.073v19.426a3.371 3.371 0 0 0-2.24 3.149 4.938 4.938 0 0 0 .416 1.776c.227.626.516 1.308.8 1.947.573 1.277 1.142 2.388 1.142 2.388l1 1.938 1-1.938s.569-1.111 1.142-2.388c.289-.639.577-1.321.8-1.947a4.938 4.938 0 0 0 .416-1.776 3.371 3.371 0 0 0-2.24-3.149V31.5l7.432 4.807a25.114 25.114 0 0 0-1.833 9.6 39.381 39.381 0 0 0 1.155 8.11l.21.849h10.648c.1.1.206.188.306.284v3.36a72.52 72.52 0 0 0-9.435 3.6 32.3 32.3 0 0 0-7.183 4.418c-2.017 1.737-3.539 3.814-3.539 6.255v6.719h58.23v-6.715c0-2.441-1.522-4.519-3.539-6.255a32.3 32.3 0 0 0-7.183-4.418 72.52 72.52 0 0 0-9.435-3.6v-3.355c.1-.1.21-.188.311-.289H64.7l.21-.849a39.381 39.381 0 0 0 1.155-8.11 25.21 25.21 0 0 0-1.872-9.7L77.113 28zm0 2.651L72.94 28l-9.706 6.172a19.594 19.594 0 0 0-3.158-4.44l.472-3.324-.5-.4a26.148 26.148 0 0 0-15.257-4.724A26.148 26.148 0 0 0 29.535 26l-.5.4.472 3.324a19.7 19.7 0 0 0-3.207 4.535L16.635 28zm0 13.359c7.992 0 12.672 3.434 13.346 3.941l-.838 5.888a40.313 40.313 0 0 0-25.021 0l-.835-5.888c.676-.507 5.356-3.941 13.348-3.941zM29.92 32.641l.525 3.674 1.3-.494.551-.179a10.873 10.873 0 0 0-.945 4.545v3.9a15.866 15.866 0 0 0 2.38 8.547h-7.066a33.136 33.136 0 0 1-.91-6.719 21.225 21.225 0 0 1 4.165-13.274zm29.745 0a21.208 21.208 0 0 1 4.164 13.271 33.136 33.136 0 0 1-.91 6.719H55.85a15.866 15.866 0 0 0 2.38-8.547v-5.468a14.813 14.813 0 0 0-.245-2.738l1.155.437.2-1.382zm-14.872.954a41.621 41.621 0 0 1 10.691 1.5 11.127 11.127 0 0 1 .507 3.521v5.468c0 6.2-3.281 11.093-9.024 12.117l-.319.052-.241.223a2.371 2.371 0 0 1-3.228 0l-.241-.223-.319-.052c-5.743-1.024-9.024-5.918-9.024-12.117v-3.9a7.6 7.6 0 0 1 1.955-5.459 40.78 40.78 0 0 1 9.242-1.131zm-6.159 5.6a1.68 1.68 0 1 0 1.68 1.68 1.68 1.68 0 0 0-1.681-1.682zm12.318 0a1.68 1.68 0 1 0 1.68 1.68 1.68 1.68 0 0 0-1.681-1.682zM16.8 51.511a1.1 1.1 0 0 1 1.12 1.12 9.5 9.5 0 0 1-.284 1.015c-.192.542-.464 1.181-.735 1.789-.052.109-.052.1-.1.206l-.1-.206c-.271-.608-.542-1.247-.735-1.789a9.5 9.5 0 0 1-.284-1.015 1.1 1.1 0 0 1 1.118-1.12zm21.276 5.306a12.753 12.753 0 0 0 3.836 1.465 4.416 4.416 0 0 0 5.752 0 12.6 12.6 0 0 0 3.849-1.461v5.533a7.3 7.3 0 0 1-6.719 3.709 7.3 7.3 0 0 1-6.719-3.709zm-2.24 4.051v2.1l.118.241a10.216 10.216 0 0 0 17.681 0l.118-.241v-2.1a68.494 68.494 0 0 1 8.482 3.276 30.661 30.661 0 0 1 6.675 4.086c1.763 1.518 2.76 3.079 2.76 4.558v4.479H17.917v-4.48c0-1.478 1-3.04 2.76-4.558a30.661 30.661 0 0 1 6.675-4.086 68.494 68.494 0 0 1 8.482-3.275zM22.4 72.787a1.12 1.12 0 1 0 1.12 1.12 1.122 1.122 0 0 0-1.12-1.12zm4.479 0A1.12 1.12 0 1 0 28 73.907a1.122 1.122 0 0 0-1.125-1.12zm4.479 0a1.12 1.12 0 1 0 1.12 1.12 1.122 1.122 0 0 0-1.123-1.12zm4.479 0a1.12 1.12 0 1 0 1.12 1.12 1.122 1.122 0 0 0-1.123-1.12zm4.479 0a1.12 1.12 0 1 0 1.12 1.12 1.122 1.122 0 0 0-1.123-1.12zm4.479 0a1.12 1.12 0 1 0 1.12 1.12 1.122 1.122 0 0 0-1.123-1.12zm4.479 0a1.12 1.12 0 1 0 1.12 1.12 1.122 1.122 0 0 0-1.123-1.12zm4.479 0a1.12 1.12 0 1 0 1.12 1.12 1.122 1.122 0 0 0-1.122-1.12zm4.479 0a1.12 1.12 0 1 0 1.12 1.12 1.122 1.122 0 0 0-1.122-1.12zm4.479 0a1.12 1.12 0 1 0 1.12 1.12 1.122 1.122 0 0 0-1.122-1.12zm4.479 0a1.12 1.12 0 1 0 1.12 1.12 1.122 1.122 0 0 0-1.122-1.12z" class="cls-1" transform="translate(1275.203 5017.494)"/>
    </g>
</svg>
